<?xml version="1.0" encoding="utf-8"?>
<!-- Generator: Adobe Illustrator 21.1.0, SVG Export Plug-In . SVG Version: 6.00 Build 0)  -->
<svg version="1.1" xmlns="http://www.w3.org/2000/svg" xmlns:xlink="http://www.w3.org/1999/xlink" x="0px" y="0px"
	 viewBox="0 0 72 24" style="enable-background:new 0 0 72 24;" xml:space="preserve">
<style type="text/css">
	.st0{fill:none;stroke:#00A9E0;stroke-width:2;}
	.st1{fill:none;stroke:#2F3132;stroke-width:2;}
	.st2{fill:#00A9E0;stroke:#00A9E0;stroke-width:2;}
	.st3{fill:#FFFFFF;}
</style>
<path class="st0" d="M4,1h16c1.7,0,3,1.3,3,3v16c0,1.7-1.3,3-3,3H4c-1.7,0-3-1.3-3-3V4C1,2.3,2.3,1,4,1z"/>
<path class="st1" d="M52,1h16c1.7,0,3,1.3,3,3v16c0,1.7-1.3,3-3,3H52c-1.7,0-3-1.3-3-3V4C49,2.3,50.3,1,52,1z"/>
<path class="st2" d="M28,1h16c1.7,0,3,1.3,3,3v16c0,1.7-1.3,3-3,3H28c-1.7,0-3-1.3-3-3V4C25,2.3,26.3,1,28,1z"/>
<path class="st3" d="M36.2,15.6"/>
<path class="st3" d="M33.9,17.5l-5-6l2.3-2l3,3.7L41,6.5l2.1,2.1L33.9,17.5z"/>
</svg>
